<svg id="visual" viewBox="0 0 900 600" width="900" height="600" xmlns="http://www.w3.org/2000/svg" xmlns:xlink="http://www.w3.org/1999/xlink" version="1.1"><g><g transform="translate(425 246)"><path d="M70.1 -46.7C81.2 -21.3 73.8 8.5 59 36C44.3 63.5 22.1 88.6 -0.2 88.7C-22.5 88.8 -45 63.9 -59.5 36.6C-74 9.2 -80.5 -20.5 -69.3 -45.9C-58 -71.4 -29 -92.5 0.3 -92.7C29.5 -92.8 59.1 -72 70.1 -46.7Z" stroke="#e4ebf4" fill="none" stroke-width="9"></path></g><g transform="translate(631 366)"><path d="M48 -29C57.8 -10.8 58.2 11.5 48.7 29.1C39.1 46.7 19.6 59.5 1.2 58.8C-17.2 58.2 -34.5 44 -43.8 26.6C-53.1 9.2 -54.4 -11.5 -45.8 -29.1C-37.2 -46.6 -18.6 -61 0.3 -61.2C19.1 -61.3 38.3 -47.2 48 -29Z" stroke="#e4ebf4" fill="none" stroke-width="9"></path></g><g transform="translate(175 225)"><path d="M65.3 -37.8C75.6 -19.9 68.7 7.9 55 28.7C41.2 49.4 20.6 63.2 -0.8 63.6C-22.2 64.1 -44.4 51.3 -56.4 31.5C-68.5 11.7 -70.4 -15 -59.3 -33.4C-48.2 -51.8 -24.1 -61.8 1.7 -62.8C27.5 -63.8 55 -55.7 65.3 -37.8Z" stroke="#e4ebf4" fill="none" stroke-width="9"></path></g><g transform="translate(781 140)"><path d="M63.6 -34.4C75.6 -15.9 73.8 12.9 60.9 32.7C48.1 52.5 24 63.5 3.6 61.4C-16.9 59.3 -33.7 44.3 -42.3 26.9C-50.9 9.5 -51.3 -10.2 -42.9 -26.6C-34.5 -43.1 -17.2 -56.3 4.3 -58.8C25.8 -61.2 51.5 -52.9 63.6 -34.4Z" stroke="#e4ebf4" fill="none" stroke-width="9"></path></g><g transform="translate(205 480)"><path d="M51.5 -29.6C60.9 -13.4 58.7 9.6 48.2 25.2C37.7 40.7 18.8 48.8 -2.2 50C-23.2 51.3 -46.5 45.8 -57.5 29.9C-68.6 14 -67.6 -12.2 -56 -29.6C-44.4 -47.1 -22.2 -55.7 -0.6 -55.4C21 -55 42 -45.7 51.5 -29.6Z" stroke="#e4ebf4" fill="none" stroke-width="9"></path></g></g></svg>