<svg id="visual" viewBox="0 0 900 600" width="900" height="600" xmlns="http://www.w3.org/2000/svg" xmlns:xlink="http://www.w3.org/1999/xlink" version="1.1"><g><g transform="translate(229 599)"><path d="M72.9 -21.4C83.1 7.8 72.2 46 47.5 63.6C22.8 81.1 -15.7 77.9 -41.8 58.7C-67.8 39.5 -81.4 4.3 -72.4 -23.3C-63.3 -50.9 -31.7 -70.8 -0.2 -70.8C31.3 -70.7 62.6 -50.6 72.9 -21.4Z" stroke="#e4ebf4" fill="none" stroke-width="20"></path></g><g transform="translate(861 556)"><path d="M65.9 -22C74.2 4.2 62 36.4 39.1 52.9C16.2 69.4 -17.6 70 -39 54.3C-60.3 38.7 -69.3 6.6 -60.7 -20C-52.2 -46.5 -26.1 -67.6 1.3 -68.1C28.8 -68.5 57.5 -48.3 65.9 -22Z" stroke="#e4ebf4" fill="none" stroke-width="20"></path></g><g transform="translate(576 164)"><path d="M65 -19.9C73.3 4.3 61.4 36.3 40.1 50.7C18.7 65.2 -12.1 62.2 -34.6 46.2C-57.1 30.2 -71.3 1.2 -64.2 -21.5C-57 -44.2 -28.5 -60.7 -0.1 -60.7C28.4 -60.6 56.7 -44.1 65 -19.9Z" stroke="#e4ebf4" fill="none" stroke-width="20"></path></g><g transform="translate(179 238)"><path d="M44 -14.5C50.3 5 44 28.5 27.5 41.3C11 54.1 -15.7 56.3 -31.5 44.6C-47.2 32.8 -51.9 7.2 -44.8 -13.4C-37.8 -34 -18.9 -49.6 0 -49.6C18.9 -49.6 37.7 -34 44 -14.5Z" stroke="#e4ebf4" fill="none" stroke-width="20"></path></g><g transform="translate(775 273)"><path d="M67 -20.6C75.7 4.9 63.8 38.2 39.7 56.1C15.5 73.9 -20.9 76.4 -43.3 60C-65.7 43.6 -74.1 8.4 -64.6 -18.3C-55 -45.1 -27.5 -63.3 0.8 -63.6C29.2 -63.8 58.3 -46.1 67 -20.6Z" stroke="#e4ebf4" fill="none" stroke-width="20"></path></g><g transform="translate(469 460)"><path d="M59.3 -19.5C68.2 7.9 60.6 40.5 39.8 55.8C19 71.2 -15 69.3 -36.9 52.9C-58.8 36.5 -68.6 5.5 -60.5 -21C-52.3 -47.5 -26.2 -69.5 -0.5 -69.4C25.2 -69.2 50.5 -46.9 59.3 -19.5Z" stroke="#e4ebf4" fill="none" stroke-width="20"></path></g><g transform="translate(352 19)"><path d="M45.6 -13.8C51.9 4.6 44.8 28.3 30.1 38.2C15.4 48.2 -7 44.3 -23.5 32.3C-40 20.3 -50.6 0.2 -45.7 -16.2C-40.8 -32.7 -20.4 -45.4 -0.4 -45.3C19.6 -45.2 39.3 -32.2 45.6 -13.8Z" stroke="#e4ebf4" fill="none" stroke-width="20"></path></g><g transform="translate(102 11)"><path d="M47.9 -18.5C53.7 2.3 44.3 25.1 27.6 37C11 48.9 -12.9 49.8 -30 38.1C-47.1 26.4 -57.4 2.2 -51.3 -19.1C-45.1 -40.4 -22.6 -58.7 -0.8 -58.5C21 -58.2 42.1 -39.4 47.9 -18.5Z" stroke="#e4ebf4" fill="none" stroke-width="20"></path></g><g transform="translate(827 40)"><path d="M39.9 -12.6C44.6 1.5 36.4 20.1 21.7 31C7.1 41.9 -14 45.1 -28 35.6C-41.9 26.2 -48.8 4 -42.9 -11.6C-37.1 -27.2 -18.5 -36.4 -0.5 -36.3C17.6 -36.1 35.2 -26.6 39.9 -12.6Z" stroke="#e4ebf4" fill="none" stroke-width="20"></path></g><g transform="translate(14 418)"><path d="M39.8 -13.1C46 6 41.5 28.5 27.8 38.6C14 48.6 -9 46.3 -25 34.6C-41 22.9 -50 1.9 -44.7 -16.2C-39.4 -34.2 -19.7 -49.2 -1.4 -48.7C16.8 -48.3 33.7 -32.3 39.8 -13.1Z" stroke="#e4ebf4" fill="none" stroke-width="20"></path></g></g></svg>